
<!--Цвет фона - tailwind slate-900, цвет обводки tailwind emerald-200-->
<svg xmlns="http://www.w3.org/2000/svg" viewBox="0 0 48 48" width="512" height="512">
    <rect width="48" height="48" fill="#0f172a"/>
    <path
            fill="none"
            stroke="#A7F3D0"
            stroke-width="2"
            stroke-linecap="round"
            stroke-linejoin="round"
            transform="translate(24 24) scale(0.8 0.8) translate(-24 -24)"
            d="M7.5 5.5a2 2 0 0 0-2 2v33a2 2 0 0 0 2 2h33a2 2 0 0 0 2-2v-33a2 2 0 0 0-2-2Zm5.3 3.65a3.65 3.65 0 1 1-3.65 3.65a3.65 3.65 0 0 1 3.65-3.65m22.4 0a3.65 3.65 0 1 1-3.65 3.65a3.66 3.66 0 0 1 3.65-3.65M24 20.35A3.64 3.64 0 0 1 27.65 24h0A3.64 3.64 0 0 1 24 27.65h0A3.64 3.64 0 0 1 20.35 24h0A3.64 3.64 0 0 1 24 20.35m-11.2 11.2a3.64 3.64 0 0 1 3.65 3.65h0a3.65 3.65 0 0 1-3.65 3.65h0a3.66 3.66 0 0 1-3.65-3.65h0a3.65 3.65 0 0 1 3.65-3.65m22.4 0a3.65 3.65 0 0 1 3.65 3.65h0a3.66 3.66 0 0 1-3.65 3.65h0a3.65 3.65 0 0 1-3.65-3.65h0a3.64 3.64 0 0 1 3.65-3.65"
    />
</svg>
