<?xml version="1.0"?>
<svg xmlns="http://www.w3.org/2000/svg" xmlns:xlink="http://www.w3.org/1999/xlink" version="1.1" width="500px" height="500px" viewBox="0 0 500 500"><defs><rect id="block" width="12.1951219512" height="12.1951219512" fill="#000000" fill-opacity="1"/></defs><rect x="0" y="0" width="500" height="500" fill="#ffffff" fill-opacity="1"/><use x="0.0000000000" y="0.0000000000" xlink:href="#block"/><use x="12.1951219512" y="0.0000000000" xlink:href="#block"/><use x="24.3902439024" y="0.0000000000" xlink:href="#block"/><use x="36.5853658537" y="0.0000000000" xlink:href="#block"/><use x="48.7804878049" y="0.0000000000" xlink:href="#block"/><use x="60.9756097561" y="0.0000000000" xlink:href="#block"/><use x="73.1707317073" y="0.0000000000" xlink:href="#block"/><use x="134.1463414634" y="0.0000000000" xlink:href="#block"/><use x="170.7317073171" y="0.0000000000" xlink:href="#block"/><use x="219.5121951220" y="0.0000000000" xlink:href="#block"/><use x="243.9024390244" y="0.0000000000" xlink:href="#block"/><use x="280.4878048780" y="0.0000000000" xlink:href="#block"/><use x="414.6341463415" y="0.0000000000" xlink:href="#block"/><use x="426.8292682927" y="0.0000000000" xlink:href="#block"/><use x="439.0243902439" y="0.0000000000" xlink:href="#block"/><use x="451.2195121951" y="0.0000000000" xlink:href="#block"/><use x="463.4146341463" y="0.0000000000" xlink:href="#block"/><use x="475.6097560976" y="0.0000000000" xlink:href="#block"/><use x="487.8048780488" y="0.0000000000" xlink:href="#block"/><use x="0.0000000000" y="12.1951219512" xlink:href="#block"/><use x="73.1707317073" y="12.1951219512" xlink:href="#block"/><use x="97.5609756098" y="12.1951219512" xlink:href="#block"/><use x="109.7560975610" y="12.1951219512" xlink:href="#block"/><use x="146.3414634146" y="12.1951219512" xlink:href="#block"/><use x="182.9268292683" y="12.1951219512" xlink:href="#block"/><use x="219.5121951220" y="12.1951219512" xlink:href="#block"/><use x="231.7073170732" y="12.1951219512" xlink:href="#block"/><use x="256.0975609756" y="12.1951219512" xlink:href="#block"/><use x="341.4634146341" y="12.1951219512" xlink:href="#block"/><use x="353.6585365854" y="12.1951219512" xlink:href="#block"/><use x="378.0487804878" y="12.1951219512" xlink:href="#block"/><use x="390.2439024390" y="12.1951219512" xlink:href="#block"/><use x="414.6341463415" y="12.1951219512" xlink:href="#block"/><use x="487.8048780488" y="12.1951219512" xlink:href="#block"/><use x="0.0000000000" y="24.3902439024" xlink:href="#block"/><use x="24.3902439024" y="24.3902439024" xlink:href="#block"/><use x="36.5853658537" y="24.3902439024" xlink:href="#block"/><use x="48.7804878049" y="24.3902439024" xlink:href="#block"/><use x="73.1707317073" y="24.3902439024" xlink:href="#block"/><use x="121.9512195122" y="24.3902439024" xlink:href="#block"/><use x="146.3414634146" y="24.3902439024" xlink:href="#block"/><use x="158.5365853659" y="24.3902439024" xlink:href="#block"/><use x="207.3170731707" y="24.3902439024" xlink:href="#block"/><use x="231.7073170732" y="24.3902439024" xlink:href="#block"/><use x="256.0975609756" y="24.3902439024" xlink:href="#block"/><use x="268.2926829268" y="24.3902439024" xlink:href="#block"/><use x="280.4878048780" y="24.3902439024" xlink:href="#block"/><use x="292.6829268293" y="24.3902439024" xlink:href="#block"/><use x="304.8780487805" y="24.3902439024" xlink:href="#block"/><use x="341.4634146341" y="24.3902439024" xlink:href="#block"/><use x="378.0487804878" y="24.3902439024" xlink:href="#block"/><use x="390.2439024390" y="24.3902439024" xlink:href="#block"/><use x="414.6341463415" y="24.3902439024" xlink:href="#block"/><use x="439.0243902439" y="24.3902439024" xlink:href="#block"/><use x="451.2195121951" y="24.3902439024" xlink:href="#block"/><use x="463.4146341463" y="24.3902439024" xlink:href="#block"/><use x="487.8048780488" y="24.3902439024" xlink:href="#block"/><use x="0.0000000000" y="36.5853658537" xlink:href="#block"/><use x="24.3902439024" y="36.5853658537" xlink:href="#block"/><use x="36.5853658537" y="36.5853658537" xlink:href="#block"/><use x="48.7804878049" y="36.5853658537" xlink:href="#block"/><use x="73.1707317073" y="36.5853658537" xlink:href="#block"/><use x="109.7560975610" y="36.5853658537" xlink:href="#block"/><use x="121.9512195122" y="36.5853658537" xlink:href="#block"/><use x="134.1463414634" y="36.5853658537" xlink:href="#block"/><use x="158.5365853659" y="36.5853658537" xlink:href="#block"/><use x="170.7317073171" y="36.5853658537" xlink:href="#block"/><use x="207.3170731707" y="36.5853658537" xlink:href="#block"/><use x="219.5121951220" y="36.5853658537" xlink:href="#block"/><use x="243.9024390244" y="36.5853658537" xlink:href="#block"/><use x="280.4878048780" y="36.5853658537" xlink:href="#block"/><use x="292.6829268293" y="36.5853658537" xlink:href="#block"/><use x="317.0731707317" y="36.5853658537" xlink:href="#block"/><use x="329.2682926829" y="36.5853658537" xlink:href="#block"/><use x="341.4634146341" y="36.5853658537" xlink:href="#block"/><use x="365.8536585366" y="36.5853658537" xlink:href="#block"/><use x="390.2439024390" y="36.5853658537" xlink:href="#block"/><use x="414.6341463415" y="36.5853658537" xlink:href="#block"/><use x="439.0243902439" y="36.5853658537" xlink:href="#block"/><use x="451.2195121951" y="36.5853658537" xlink:href="#block"/><use x="463.4146341463" y="36.5853658537" xlink:href="#block"/><use x="487.8048780488" y="36.5853658537" xlink:href="#block"/><use x="0.0000000000" y="48.7804878049" xlink:href="#block"/><use x="24.3902439024" y="48.7804878049" xlink:href="#block"/><use x="36.5853658537" y="48.7804878049" xlink:href="#block"/><use x="48.7804878049" y="48.7804878049" xlink:href="#block"/><use x="73.1707317073" y="48.7804878049" xlink:href="#block"/><use x="109.7560975610" y="48.7804878049" xlink:href="#block"/><use x="146.3414634146" y="48.7804878049" xlink:href="#block"/><use x="158.5365853659" y="48.7804878049" xlink:href="#block"/><use x="170.7317073171" y="48.7804878049" xlink:href="#block"/><use x="195.1219512195" y="48.7804878049" xlink:href="#block"/><use x="219.5121951220" y="48.7804878049" xlink:href="#block"/><use x="231.7073170732" y="48.7804878049" xlink:href="#block"/><use x="243.9024390244" y="48.7804878049" xlink:href="#block"/><use x="268.2926829268" y="48.7804878049" xlink:href="#block"/><use x="292.6829268293" y="48.7804878049" xlink:href="#block"/><use x="317.0731707317" y="48.7804878049" xlink:href="#block"/><use x="329.2682926829" y="48.7804878049" xlink:href="#block"/><use x="365.8536585366" y="48.7804878049" xlink:href="#block"/><use x="414.6341463415" y="48.7804878049" xlink:href="#block"/><use x="439.0243902439" y="48.7804878049" xlink:href="#block"/><use x="451.2195121951" y="48.7804878049" xlink:href="#block"/><use x="463.4146341463" y="48.7804878049" xlink:href="#block"/><use x="487.8048780488" y="48.7804878049" xlink:href="#block"/><use x="0.0000000000" y="60.9756097561" xlink:href="#block"/><use x="73.1707317073" y="60.9756097561" xlink:href="#block"/><use x="97.5609756098" y="60.9756097561" xlink:href="#block"/><use x="121.9512195122" y="60.9756097561" xlink:href="#block"/><use x="134.1463414634" y="60.9756097561" xlink:href="#block"/><use x="146.3414634146" y="60.9756097561" xlink:href="#block"/><use x="195.1219512195" y="60.9756097561" xlink:href="#block"/><use x="207.3170731707" y="60.9756097561" xlink:href="#block"/><use x="219.5121951220" y="60.9756097561" xlink:href="#block"/><use x="231.7073170732" y="60.9756097561" xlink:href="#block"/><use x="256.0975609756" y="60.9756097561" xlink:href="#block"/><use x="268.2926829268" y="60.9756097561" xlink:href="#block"/><use x="280.4878048780" y="60.9756097561" xlink:href="#block"/><use x="292.6829268293" y="60.9756097561" xlink:href="#block"/><use x="304.8780487805" y="60.9756097561" xlink:href="#block"/><use x="317.0731707317" y="60.9756097561" xlink:href="#block"/><use x="353.6585365854" y="60.9756097561" xlink:href="#block"/><use x="365.8536585366" y="60.9756097561" xlink:href="#block"/><use x="378.0487804878" y="60.9756097561" xlink:href="#block"/><use x="390.2439024390" y="60.9756097561" xlink:href="#block"/><use x="414.6341463415" y="60.9756097561" xlink:href="#block"/><use x="487.8048780488" y="60.9756097561" xlink:href="#block"/><use x="0.0000000000" y="73.1707317073" xlink:href="#block"/><use x="12.1951219512" y="73.1707317073" xlink:href="#block"/><use x="24.3902439024" y="73.1707317073" xlink:href="#block"/><use x="36.5853658537" y="73.1707317073" xlink:href="#block"/><use x="48.7804878049" y="73.1707317073" xlink:href="#block"/><use x="60.9756097561" y="73.1707317073" xlink:href="#block"/><use x="73.1707317073" y="73.1707317073" xlink:href="#block"/><use x="97.5609756098" y="73.1707317073" xlink:href="#block"/><use x="121.9512195122" y="73.1707317073" xlink:href="#block"/><use x="146.3414634146" y="73.1707317073" xlink:href="#block"/><use x="170.7317073171" y="73.1707317073" xlink:href="#block"/><use x="195.1219512195" y="73.1707317073" xlink:href="#block"/><use x="219.5121951220" y="73.1707317073" xlink:href="#block"/><use x="243.9024390244" y="73.1707317073" xlink:href="#block"/><use x="268.2926829268" y="73.1707317073" xlink:href="#block"/><use x="292.6829268293" y="73.1707317073" xlink:href="#block"/><use x="317.0731707317" y="73.1707317073" xlink:href="#block"/><use x="341.4634146341" y="73.1707317073" xlink:href="#block"/><use x="365.8536585366" y="73.1707317073" xlink:href="#block"/><use x="390.2439024390" y="73.1707317073" xlink:href="#block"/><use x="414.6341463415" y="73.1707317073" xlink:href="#block"/><use x="426.8292682927" y="73.1707317073" xlink:href="#block"/><use x="439.0243902439" y="73.1707317073" xlink:href="#block"/><use x="451.2195121951" y="73.1707317073" xlink:href="#block"/><use x="463.4146341463" y="73.1707317073" xlink:href="#block"/><use x="475.6097560976" y="73.1707317073" xlink:href="#block"/><use x="487.8048780488" y="73.1707317073" xlink:href="#block"/><use x="97.5609756098" y="85.3658536585" xlink:href="#block"/><use x="121.9512195122" y="85.3658536585" xlink:href="#block"/><use x="158.5365853659" y="85.3658536585" xlink:href="#block"/><use x="170.7317073171" y="85.3658536585" xlink:href="#block"/><use x="207.3170731707" y="85.3658536585" xlink:href="#block"/><use x="256.0975609756" y="85.3658536585" xlink:href="#block"/><use x="268.2926829268" y="85.3658536585" xlink:href="#block"/><use x="292.6829268293" y="85.3658536585" xlink:href="#block"/><use x="304.8780487805" y="85.3658536585" xlink:href="#block"/><use x="378.0487804878" y="85.3658536585" xlink:href="#block"/><use x="390.2439024390" y="85.3658536585" xlink:href="#block"/><use x="48.7804878049" y="97.5609756098" xlink:href="#block"/><use x="60.9756097561" y="97.5609756098" xlink:href="#block"/><use x="73.1707317073" y="97.5609756098" xlink:href="#block"/><use x="85.3658536585" y="97.5609756098" xlink:href="#block"/><use x="109.7560975610" y="97.5609756098" xlink:href="#block"/><use x="121.9512195122" y="97.5609756098" xlink:href="#block"/><use x="134.1463414634" y="97.5609756098" xlink:href="#block"/><use x="146.3414634146" y="97.5609756098" xlink:href="#block"/><use x="158.5365853659" y="97.5609756098" xlink:href="#block"/><use x="170.7317073171" y="97.5609756098" xlink:href="#block"/><use x="182.9268292683" y="97.5609756098" xlink:href="#block"/><use x="231.7073170732" y="97.5609756098" xlink:href="#block"/><use x="256.0975609756" y="97.5609756098" xlink:href="#block"/><use x="280.4878048780" y="97.5609756098" xlink:href="#block"/><use x="292.6829268293" y="97.5609756098" xlink:href="#block"/><use x="341.4634146341" y="97.5609756098" xlink:href="#block"/><use x="353.6585365854" y="97.5609756098" xlink:href="#block"/><use x="378.0487804878" y="97.5609756098" xlink:href="#block"/><use x="414.6341463415" y="97.5609756098" xlink:href="#block"/><use x="426.8292682927" y="97.5609756098" xlink:href="#block"/><use x="475.6097560976" y="97.5609756098" xlink:href="#block"/><use x="0.0000000000" y="109.7560975610" xlink:href="#block"/><use x="24.3902439024" y="109.7560975610" xlink:href="#block"/><use x="85.3658536585" y="109.7560975610" xlink:href="#block"/><use x="109.7560975610" y="109.7560975610" xlink:href="#block"/><use x="121.9512195122" y="109.7560975610" xlink:href="#block"/><use x="134.1463414634" y="109.7560975610" xlink:href="#block"/><use x="146.3414634146" y="109.7560975610" xlink:href="#block"/><use x="170.7317073171" y="109.7560975610" xlink:href="#block"/><use x="231.7073170732" y="109.7560975610" xlink:href="#block"/><use x="256.0975609756" y="109.7560975610" xlink:href="#block"/><use x="268.2926829268" y="109.7560975610" xlink:href="#block"/><use x="280.4878048780" y="109.7560975610" xlink:href="#block"/><use x="402.4390243902" y="109.7560975610" xlink:href="#block"/><use x="451.2195121951" y="109.7560975610" xlink:href="#block"/><use x="463.4146341463" y="109.7560975610" xlink:href="#block"/><use x="0.0000000000" y="121.9512195122" xlink:href="#block"/><use x="24.3902439024" y="121.9512195122" xlink:href="#block"/><use x="48.7804878049" y="121.9512195122" xlink:href="#block"/><use x="73.1707317073" y="121.9512195122" xlink:href="#block"/><use x="97.5609756098" y="121.9512195122" xlink:href="#block"/><use x="109.7560975610" y="121.9512195122" xlink:href="#block"/><use x="158.5365853659" y="121.9512195122" xlink:href="#block"/><use x="170.7317073171" y="121.9512195122" xlink:href="#block"/><use x="195.1219512195" y="121.9512195122" xlink:href="#block"/><use x="219.5121951220" y="121.9512195122" xlink:href="#block"/><use x="231.7073170732" y="121.9512195122" xlink:href="#block"/><use x="292.6829268293" y="121.9512195122" xlink:href="#block"/><use x="317.0731707317" y="121.9512195122" xlink:href="#block"/><use x="341.4634146341" y="121.9512195122" xlink:href="#block"/><use x="365.8536585366" y="121.9512195122" xlink:href="#block"/><use x="378.0487804878" y="121.9512195122" xlink:href="#block"/><use x="414.6341463415" y="121.9512195122" xlink:href="#block"/><use x="426.8292682927" y="121.9512195122" xlink:href="#block"/><use x="439.0243902439" y="121.9512195122" xlink:href="#block"/><use x="451.2195121951" y="121.9512195122" xlink:href="#block"/><use x="463.4146341463" y="121.9512195122" xlink:href="#block"/><use x="475.6097560976" y="121.9512195122" xlink:href="#block"/><use x="487.8048780488" y="121.9512195122" xlink:href="#block"/><use x="0.0000000000" y="134.1463414634" xlink:href="#block"/><use x="60.9756097561" y="134.1463414634" xlink:href="#block"/><use x="85.3658536585" y="134.1463414634" xlink:href="#block"/><use x="97.5609756098" y="134.1463414634" xlink:href="#block"/><use x="109.7560975610" y="134.1463414634" xlink:href="#block"/><use x="121.9512195122" y="134.1463414634" xlink:href="#block"/><use x="146.3414634146" y="134.1463414634" xlink:href="#block"/><use x="170.7317073171" y="134.1463414634" xlink:href="#block"/><use x="182.9268292683" y="134.1463414634" xlink:href="#block"/><use x="207.3170731707" y="134.1463414634" xlink:href="#block"/><use x="219.5121951220" y="134.1463414634" xlink:href="#block"/><use x="231.7073170732" y="134.1463414634" xlink:href="#block"/><use x="256.0975609756" y="134.1463414634" xlink:href="#block"/><use x="280.4878048780" y="134.1463414634" xlink:href="#block"/><use x="304.8780487805" y="134.1463414634" xlink:href="#block"/><use x="378.0487804878" y="134.1463414634" xlink:href="#block"/><use x="402.4390243902" y="134.1463414634" xlink:href="#block"/><use x="451.2195121951" y="134.1463414634" xlink:href="#block"/><use x="12.1951219512" y="146.3414634146" xlink:href="#block"/><use x="48.7804878049" y="146.3414634146" xlink:href="#block"/><use x="60.9756097561" y="146.3414634146" xlink:href="#block"/><use x="73.1707317073" y="146.3414634146" xlink:href="#block"/><use x="85.3658536585" y="146.3414634146" xlink:href="#block"/><use x="97.5609756098" y="146.3414634146" xlink:href="#block"/><use x="121.9512195122" y="146.3414634146" xlink:href="#block"/><use x="146.3414634146" y="146.3414634146" xlink:href="#block"/><use x="182.9268292683" y="146.3414634146" xlink:href="#block"/><use x="195.1219512195" y="146.3414634146" xlink:href="#block"/><use x="256.0975609756" y="146.3414634146" xlink:href="#block"/><use x="268.2926829268" y="146.3414634146" xlink:href="#block"/><use x="292.6829268293" y="146.3414634146" xlink:href="#block"/><use x="317.0731707317" y="146.3414634146" xlink:href="#block"/><use x="341.4634146341" y="146.3414634146" xlink:href="#block"/><use x="365.8536585366" y="146.3414634146" xlink:href="#block"/><use x="378.0487804878" y="146.3414634146" xlink:href="#block"/><use x="463.4146341463" y="146.3414634146" xlink:href="#block"/><use x="24.3902439024" y="158.5365853659" xlink:href="#block"/><use x="48.7804878049" y="158.5365853659" xlink:href="#block"/><use x="60.9756097561" y="158.5365853659" xlink:href="#block"/><use x="97.5609756098" y="158.5365853659" xlink:href="#block"/><use x="109.7560975610" y="158.5365853659" xlink:href="#block"/><use x="121.9512195122" y="158.5365853659" xlink:href="#block"/><use x="134.1463414634" y="158.5365853659" xlink:href="#block"/><use x="146.3414634146" y="158.5365853659" xlink:href="#block"/><use x="158.5365853659" y="158.5365853659" xlink:href="#block"/><use x="182.9268292683" y="158.5365853659" xlink:href="#block"/><use x="207.3170731707" y="158.5365853659" xlink:href="#block"/><use x="280.4878048780" y="158.5365853659" xlink:href="#block"/><use x="317.0731707317" y="158.5365853659" xlink:href="#block"/><use x="378.0487804878" y="158.5365853659" xlink:href="#block"/><use x="390.2439024390" y="158.5365853659" xlink:href="#block"/><use x="402.4390243902" y="158.5365853659" xlink:href="#block"/><use x="439.0243902439" y="158.5365853659" xlink:href="#block"/><use x="463.4146341463" y="158.5365853659" xlink:href="#block"/><use x="475.6097560976" y="158.5365853659" xlink:href="#block"/><use x="0.0000000000" y="170.7317073171" xlink:href="#block"/><use x="24.3902439024" y="170.7317073171" xlink:href="#block"/><use x="60.9756097561" y="170.7317073171" xlink:href="#block"/><use x="73.1707317073" y="170.7317073171" xlink:href="#block"/><use x="85.3658536585" y="170.7317073171" xlink:href="#block"/><use x="97.5609756098" y="170.7317073171" xlink:href="#block"/><use x="134.1463414634" y="170.7317073171" xlink:href="#block"/><use x="158.5365853659" y="170.7317073171" xlink:href="#block"/><use x="207.3170731707" y="170.7317073171" xlink:href="#block"/><use x="219.5121951220" y="170.7317073171" xlink:href="#block"/><use x="256.0975609756" y="170.7317073171" xlink:href="#block"/><use x="268.2926829268" y="170.7317073171" xlink:href="#block"/><use x="280.4878048780" y="170.7317073171" xlink:href="#block"/><use x="292.6829268293" y="170.7317073171" xlink:href="#block"/><use x="329.2682926829" y="170.7317073171" xlink:href="#block"/><use x="365.8536585366" y="170.7317073171" xlink:href="#block"/><use x="378.0487804878" y="170.7317073171" xlink:href="#block"/><use x="414.6341463415" y="170.7317073171" xlink:href="#block"/><use x="439.0243902439" y="170.7317073171" xlink:href="#block"/><use x="463.4146341463" y="170.7317073171" xlink:href="#block"/><use x="475.6097560976" y="170.7317073171" xlink:href="#block"/><use x="0.0000000000" y="182.9268292683" xlink:href="#block"/><use x="12.1951219512" y="182.9268292683" xlink:href="#block"/><use x="109.7560975610" y="182.9268292683" xlink:href="#block"/><use x="134.1463414634" y="182.9268292683" xlink:href="#block"/><use x="146.3414634146" y="182.9268292683" xlink:href="#block"/><use x="158.5365853659" y="182.9268292683" xlink:href="#block"/><use x="170.7317073171" y="182.9268292683" xlink:href="#block"/><use x="207.3170731707" y="182.9268292683" xlink:href="#block"/><use x="219.5121951220" y="182.9268292683" xlink:href="#block"/><use x="256.0975609756" y="182.9268292683" xlink:href="#block"/><use x="268.2926829268" y="182.9268292683" xlink:href="#block"/><use x="292.6829268293" y="182.9268292683" xlink:href="#block"/><use x="304.8780487805" y="182.9268292683" xlink:href="#block"/><use x="329.2682926829" y="182.9268292683" xlink:href="#block"/><use x="341.4634146341" y="182.9268292683" xlink:href="#block"/><use x="353.6585365854" y="182.9268292683" xlink:href="#block"/><use x="378.0487804878" y="182.9268292683" xlink:href="#block"/><use x="390.2439024390" y="182.9268292683" xlink:href="#block"/><use x="463.4146341463" y="182.9268292683" xlink:href="#block"/><use x="475.6097560976" y="182.9268292683" xlink:href="#block"/><use x="0.0000000000" y="195.1219512195" xlink:href="#block"/><use x="12.1951219512" y="195.1219512195" xlink:href="#block"/><use x="36.5853658537" y="195.1219512195" xlink:href="#block"/><use x="73.1707317073" y="195.1219512195" xlink:href="#block"/><use x="85.3658536585" y="195.1219512195" xlink:href="#block"/><use x="97.5609756098" y="195.1219512195" xlink:href="#block"/><use x="121.9512195122" y="195.1219512195" xlink:href="#block"/><use x="158.5365853659" y="195.1219512195" xlink:href="#block"/><use x="170.7317073171" y="195.1219512195" xlink:href="#block"/><use x="195.1219512195" y="195.1219512195" xlink:href="#block"/><use x="219.5121951220" y="195.1219512195" xlink:href="#block"/><use x="243.9024390244" y="195.1219512195" xlink:href="#block"/><use x="256.0975609756" y="195.1219512195" xlink:href="#block"/><use x="280.4878048780" y="195.1219512195" xlink:href="#block"/><use x="292.6829268293" y="195.1219512195" xlink:href="#block"/><use x="317.0731707317" y="195.1219512195" xlink:href="#block"/><use x="341.4634146341" y="195.1219512195" xlink:href="#block"/><use x="365.8536585366" y="195.1219512195" xlink:href="#block"/><use x="378.0487804878" y="195.1219512195" xlink:href="#block"/><use x="439.0243902439" y="195.1219512195" xlink:href="#block"/><use x="463.4146341463" y="195.1219512195" xlink:href="#block"/><use x="475.6097560976" y="195.1219512195" xlink:href="#block"/><use x="97.5609756098" y="207.3170731707" xlink:href="#block"/><use x="109.7560975610" y="207.3170731707" xlink:href="#block"/><use x="170.7317073171" y="207.3170731707" xlink:href="#block"/><use x="182.9268292683" y="207.3170731707" xlink:href="#block"/><use x="207.3170731707" y="207.3170731707" xlink:href="#block"/><use x="243.9024390244" y="207.3170731707" xlink:href="#block"/><use x="268.2926829268" y="207.3170731707" xlink:href="#block"/><use x="304.8780487805" y="207.3170731707" xlink:href="#block"/><use x="341.4634146341" y="207.3170731707" xlink:href="#block"/><use x="378.0487804878" y="207.3170731707" xlink:href="#block"/><use x="426.8292682927" y="207.3170731707" xlink:href="#block"/><use x="439.0243902439" y="207.3170731707" xlink:href="#block"/><use x="463.4146341463" y="207.3170731707" xlink:href="#block"/><use x="487.8048780488" y="207.3170731707" xlink:href="#block"/><use x="12.1951219512" y="219.5121951220" xlink:href="#block"/><use x="24.3902439024" y="219.5121951220" xlink:href="#block"/><use x="36.5853658537" y="219.5121951220" xlink:href="#block"/><use x="48.7804878049" y="219.5121951220" xlink:href="#block"/><use x="73.1707317073" y="219.5121951220" xlink:href="#block"/><use x="97.5609756098" y="219.5121951220" xlink:href="#block"/><use x="121.9512195122" y="219.5121951220" xlink:href="#block"/><use x="134.1463414634" y="219.5121951220" xlink:href="#block"/><use x="146.3414634146" y="219.5121951220" xlink:href="#block"/><use x="231.7073170732" y="219.5121951220" xlink:href="#block"/><use x="256.0975609756" y="219.5121951220" xlink:href="#block"/><use x="280.4878048780" y="219.5121951220" xlink:href="#block"/><use x="292.6829268293" y="219.5121951220" xlink:href="#block"/><use x="304.8780487805" y="219.5121951220" xlink:href="#block"/><use x="341.4634146341" y="219.5121951220" xlink:href="#block"/><use x="365.8536585366" y="219.5121951220" xlink:href="#block"/><use x="378.0487804878" y="219.5121951220" xlink:href="#block"/><use x="414.6341463415" y="219.5121951220" xlink:href="#block"/><use x="439.0243902439" y="219.5121951220" xlink:href="#block"/><use x="463.4146341463" y="219.5121951220" xlink:href="#block"/><use x="475.6097560976" y="219.5121951220" xlink:href="#block"/><use x="36.5853658537" y="231.7073170732" xlink:href="#block"/><use x="60.9756097561" y="231.7073170732" xlink:href="#block"/><use x="85.3658536585" y="231.7073170732" xlink:href="#block"/><use x="97.5609756098" y="231.7073170732" xlink:href="#block"/><use x="121.9512195122" y="231.7073170732" xlink:href="#block"/><use x="134.1463414634" y="231.7073170732" xlink:href="#block"/><use x="146.3414634146" y="231.7073170732" xlink:href="#block"/><use x="158.5365853659" y="231.7073170732" xlink:href="#block"/><use x="170.7317073171" y="231.7073170732" xlink:href="#block"/><use x="182.9268292683" y="231.7073170732" xlink:href="#block"/><use x="231.7073170732" y="231.7073170732" xlink:href="#block"/><use x="243.9024390244" y="231.7073170732" xlink:href="#block"/><use x="268.2926829268" y="231.7073170732" xlink:href="#block"/><use x="280.4878048780" y="231.7073170732" xlink:href="#block"/><use x="317.0731707317" y="231.7073170732" xlink:href="#block"/><use x="341.4634146341" y="231.7073170732" xlink:href="#block"/><use x="353.6585365854" y="231.7073170732" xlink:href="#block"/><use x="378.0487804878" y="231.7073170732" xlink:href="#block"/><use x="402.4390243902" y="231.7073170732" xlink:href="#block"/><use x="451.2195121951" y="231.7073170732" xlink:href="#block"/><use x="463.4146341463" y="231.7073170732" xlink:href="#block"/><use x="0.0000000000" y="243.9024390244" xlink:href="#block"/><use x="12.1951219512" y="243.9024390244" xlink:href="#block"/><use x="24.3902439024" y="243.9024390244" xlink:href="#block"/><use x="36.5853658537" y="243.9024390244" xlink:href="#block"/><use x="60.9756097561" y="243.9024390244" xlink:href="#block"/><use x="73.1707317073" y="243.9024390244" xlink:href="#block"/><use x="97.5609756098" y="243.9024390244" xlink:href="#block"/><use x="121.9512195122" y="243.9024390244" xlink:href="#block"/><use x="134.1463414634" y="243.9024390244" xlink:href="#block"/><use x="146.3414634146" y="243.9024390244" xlink:href="#block"/><use x="170.7317073171" y="243.9024390244" xlink:href="#block"/><use x="207.3170731707" y="243.9024390244" xlink:href="#block"/><use x="231.7073170732" y="243.9024390244" xlink:href="#block"/><use x="256.0975609756" y="243.9024390244" xlink:href="#block"/><use x="268.2926829268" y="243.9024390244" xlink:href="#block"/><use x="280.4878048780" y="243.9024390244" xlink:href="#block"/><use x="292.6829268293" y="243.9024390244" xlink:href="#block"/><use x="341.4634146341" y="243.9024390244" xlink:href="#block"/><use x="353.6585365854" y="243.9024390244" xlink:href="#block"/><use x="378.0487804878" y="243.9024390244" xlink:href="#block"/><use x="390.2439024390" y="243.9024390244" xlink:href="#block"/><use x="402.4390243902" y="243.9024390244" xlink:href="#block"/><use x="414.6341463415" y="243.9024390244" xlink:href="#block"/><use x="439.0243902439" y="243.9024390244" xlink:href="#block"/><use x="475.6097560976" y="243.9024390244" xlink:href="#block"/><use x="24.3902439024" y="256.0975609756" xlink:href="#block"/><use x="48.7804878049" y="256.0975609756" xlink:href="#block"/><use x="60.9756097561" y="256.0975609756" xlink:href="#block"/><use x="85.3658536585" y="256.0975609756" xlink:href="#block"/><use x="97.5609756098" y="256.0975609756" xlink:href="#block"/><use x="109.7560975610" y="256.0975609756" xlink:href="#block"/><use x="121.9512195122" y="256.0975609756" xlink:href="#block"/><use x="182.9268292683" y="256.0975609756" xlink:href="#block"/><use x="195.1219512195" y="256.0975609756" xlink:href="#block"/><use x="207.3170731707" y="256.0975609756" xlink:href="#block"/><use x="219.5121951220" y="256.0975609756" xlink:href="#block"/><use x="243.9024390244" y="256.0975609756" xlink:href="#block"/><use x="256.0975609756" y="256.0975609756" xlink:href="#block"/><use x="292.6829268293" y="256.0975609756" xlink:href="#block"/><use x="317.0731707317" y="256.0975609756" xlink:href="#block"/><use x="341.4634146341" y="256.0975609756" xlink:href="#block"/><use x="402.4390243902" y="256.0975609756" xlink:href="#block"/><use x="414.6341463415" y="256.0975609756" xlink:href="#block"/><use x="426.8292682927" y="256.0975609756" xlink:href="#block"/><use x="451.2195121951" y="256.0975609756" xlink:href="#block"/><use x="463.4146341463" y="256.0975609756" xlink:href="#block"/><use x="0.0000000000" y="268.2926829268" xlink:href="#block"/><use x="60.9756097561" y="268.2926829268" xlink:href="#block"/><use x="73.1707317073" y="268.2926829268" xlink:href="#block"/><use x="85.3658536585" y="268.2926829268" xlink:href="#block"/><use x="97.5609756098" y="268.2926829268" xlink:href="#block"/><use x="134.1463414634" y="268.2926829268" xlink:href="#block"/><use x="158.5365853659" y="268.2926829268" xlink:href="#block"/><use x="182.9268292683" y="268.2926829268" xlink:href="#block"/><use x="231.7073170732" y="268.2926829268" xlink:href="#block"/><use x="243.9024390244" y="268.2926829268" xlink:href="#block"/><use x="256.0975609756" y="268.2926829268" xlink:href="#block"/><use x="304.8780487805" y="268.2926829268" xlink:href="#block"/><use x="329.2682926829" y="268.2926829268" xlink:href="#block"/><use x="365.8536585366" y="268.2926829268" xlink:href="#block"/><use x="378.0487804878" y="268.2926829268" xlink:href="#block"/><use x="414.6341463415" y="268.2926829268" xlink:href="#block"/><use x="426.8292682927" y="268.2926829268" xlink:href="#block"/><use x="439.0243902439" y="268.2926829268" xlink:href="#block"/><use x="451.2195121951" y="268.2926829268" xlink:href="#block"/><use x="463.4146341463" y="268.2926829268" xlink:href="#block"/><use x="487.8048780488" y="268.2926829268" xlink:href="#block"/><use x="12.1951219512" y="280.4878048780" xlink:href="#block"/><use x="36.5853658537" y="280.4878048780" xlink:href="#block"/><use x="97.5609756098" y="280.4878048780" xlink:href="#block"/><use x="109.7560975610" y="280.4878048780" xlink:href="#block"/><use x="134.1463414634" y="280.4878048780" xlink:href="#block"/><use x="146.3414634146" y="280.4878048780" xlink:href="#block"/><use x="182.9268292683" y="280.4878048780" xlink:href="#block"/><use x="195.1219512195" y="280.4878048780" xlink:href="#block"/><use x="207.3170731707" y="280.4878048780" xlink:href="#block"/><use x="219.5121951220" y="280.4878048780" xlink:href="#block"/><use x="231.7073170732" y="280.4878048780" xlink:href="#block"/><use x="243.9024390244" y="280.4878048780" xlink:href="#block"/><use x="256.0975609756" y="280.4878048780" xlink:href="#block"/><use x="268.2926829268" y="280.4878048780" xlink:href="#block"/><use x="280.4878048780" y="280.4878048780" xlink:href="#block"/><use x="304.8780487805" y="280.4878048780" xlink:href="#block"/><use x="353.6585365854" y="280.4878048780" xlink:href="#block"/><use x="378.0487804878" y="280.4878048780" xlink:href="#block"/><use x="402.4390243902" y="280.4878048780" xlink:href="#block"/><use x="475.6097560976" y="280.4878048780" xlink:href="#block"/><use x="0.0000000000" y="292.6829268293" xlink:href="#block"/><use x="24.3902439024" y="292.6829268293" xlink:href="#block"/><use x="36.5853658537" y="292.6829268293" xlink:href="#block"/><use x="48.7804878049" y="292.6829268293" xlink:href="#block"/><use x="60.9756097561" y="292.6829268293" xlink:href="#block"/><use x="73.1707317073" y="292.6829268293" xlink:href="#block"/><use x="158.5365853659" y="292.6829268293" xlink:href="#block"/><use x="170.7317073171" y="292.6829268293" xlink:href="#block"/><use x="182.9268292683" y="292.6829268293" xlink:href="#block"/><use x="195.1219512195" y="292.6829268293" xlink:href="#block"/><use x="207.3170731707" y="292.6829268293" xlink:href="#block"/><use x="231.7073170732" y="292.6829268293" xlink:href="#block"/><use x="243.9024390244" y="292.6829268293" xlink:href="#block"/><use x="256.0975609756" y="292.6829268293" xlink:href="#block"/><use x="268.2926829268" y="292.6829268293" xlink:href="#block"/><use x="317.0731707317" y="292.6829268293" xlink:href="#block"/><use x="378.0487804878" y="292.6829268293" xlink:href="#block"/><use x="390.2439024390" y="292.6829268293" xlink:href="#block"/><use x="439.0243902439" y="292.6829268293" xlink:href="#block"/><use x="451.2195121951" y="292.6829268293" xlink:href="#block"/><use x="463.4146341463" y="292.6829268293" xlink:href="#block"/><use x="487.8048780488" y="292.6829268293" xlink:href="#block"/><use x="24.3902439024" y="304.8780487805" xlink:href="#block"/><use x="85.3658536585" y="304.8780487805" xlink:href="#block"/><use x="97.5609756098" y="304.8780487805" xlink:href="#block"/><use x="109.7560975610" y="304.8780487805" xlink:href="#block"/><use x="121.9512195122" y="304.8780487805" xlink:href="#block"/><use x="134.1463414634" y="304.8780487805" xlink:href="#block"/><use x="146.3414634146" y="304.8780487805" xlink:href="#block"/><use x="158.5365853659" y="304.8780487805" xlink:href="#block"/><use x="182.9268292683" y="304.8780487805" xlink:href="#block"/><use x="195.1219512195" y="304.8780487805" xlink:href="#block"/><use x="207.3170731707" y="304.8780487805" xlink:href="#block"/><use x="231.7073170732" y="304.8780487805" xlink:href="#block"/><use x="243.9024390244" y="304.8780487805" xlink:href="#block"/><use x="256.0975609756" y="304.8780487805" xlink:href="#block"/><use x="268.2926829268" y="304.8780487805" xlink:href="#block"/><use x="280.4878048780" y="304.8780487805" xlink:href="#block"/><use x="304.8780487805" y="304.8780487805" xlink:href="#block"/><use x="329.2682926829" y="304.8780487805" xlink:href="#block"/><use x="341.4634146341" y="304.8780487805" xlink:href="#block"/><use x="365.8536585366" y="304.8780487805" xlink:href="#block"/><use x="390.2439024390" y="304.8780487805" xlink:href="#block"/><use x="402.4390243902" y="304.8780487805" xlink:href="#block"/><use x="414.6341463415" y="304.8780487805" xlink:href="#block"/><use x="426.8292682927" y="304.8780487805" xlink:href="#block"/><use x="439.0243902439" y="304.8780487805" xlink:href="#block"/><use x="463.4146341463" y="304.8780487805" xlink:href="#block"/><use x="0.0000000000" y="317.0731707317" xlink:href="#block"/><use x="12.1951219512" y="317.0731707317" xlink:href="#block"/><use x="24.3902439024" y="317.0731707317" xlink:href="#block"/><use x="48.7804878049" y="317.0731707317" xlink:href="#block"/><use x="60.9756097561" y="317.0731707317" xlink:href="#block"/><use x="73.1707317073" y="317.0731707317" xlink:href="#block"/><use x="121.9512195122" y="317.0731707317" xlink:href="#block"/><use x="146.3414634146" y="317.0731707317" xlink:href="#block"/><use x="158.5365853659" y="317.0731707317" xlink:href="#block"/><use x="170.7317073171" y="317.0731707317" xlink:href="#block"/><use x="243.9024390244" y="317.0731707317" xlink:href="#block"/><use x="292.6829268293" y="317.0731707317" xlink:href="#block"/><use x="317.0731707317" y="317.0731707317" xlink:href="#block"/><use x="341.4634146341" y="317.0731707317" xlink:href="#block"/><use x="365.8536585366" y="317.0731707317" xlink:href="#block"/><use x="378.0487804878" y="317.0731707317" xlink:href="#block"/><use x="390.2439024390" y="317.0731707317" xlink:href="#block"/><use x="414.6341463415" y="317.0731707317" xlink:href="#block"/><use x="426.8292682927" y="317.0731707317" xlink:href="#block"/><use x="439.0243902439" y="317.0731707317" xlink:href="#block"/><use x="463.4146341463" y="317.0731707317" xlink:href="#block"/><use x="475.6097560976" y="317.0731707317" xlink:href="#block"/><use x="487.8048780488" y="317.0731707317" xlink:href="#block"/><use x="0.0000000000" y="329.2682926829" xlink:href="#block"/><use x="12.1951219512" y="329.2682926829" xlink:href="#block"/><use x="24.3902439024" y="329.2682926829" xlink:href="#block"/><use x="36.5853658537" y="329.2682926829" xlink:href="#block"/><use x="85.3658536585" y="329.2682926829" xlink:href="#block"/><use x="109.7560975610" y="329.2682926829" xlink:href="#block"/><use x="158.5365853659" y="329.2682926829" xlink:href="#block"/><use x="207.3170731707" y="329.2682926829" xlink:href="#block"/><use x="231.7073170732" y="329.2682926829" xlink:href="#block"/><use x="243.9024390244" y="329.2682926829" xlink:href="#block"/><use x="256.0975609756" y="329.2682926829" xlink:href="#block"/><use x="268.2926829268" y="329.2682926829" xlink:href="#block"/><use x="280.4878048780" y="329.2682926829" xlink:href="#block"/><use x="292.6829268293" y="329.2682926829" xlink:href="#block"/><use x="304.8780487805" y="329.2682926829" xlink:href="#block"/><use x="353.6585365854" y="329.2682926829" xlink:href="#block"/><use x="365.8536585366" y="329.2682926829" xlink:href="#block"/><use x="378.0487804878" y="329.2682926829" xlink:href="#block"/><use x="402.4390243902" y="329.2682926829" xlink:href="#block"/><use x="463.4146341463" y="329.2682926829" xlink:href="#block"/><use x="12.1951219512" y="341.4634146341" xlink:href="#block"/><use x="24.3902439024" y="341.4634146341" xlink:href="#block"/><use x="73.1707317073" y="341.4634146341" xlink:href="#block"/><use x="85.3658536585" y="341.4634146341" xlink:href="#block"/><use x="109.7560975610" y="341.4634146341" xlink:href="#block"/><use x="170.7317073171" y="341.4634146341" xlink:href="#block"/><use x="182.9268292683" y="341.4634146341" xlink:href="#block"/><use x="195.1219512195" y="341.4634146341" xlink:href="#block"/><use x="243.9024390244" y="341.4634146341" xlink:href="#block"/><use x="268.2926829268" y="341.4634146341" xlink:href="#block"/><use x="304.8780487805" y="341.4634146341" xlink:href="#block"/><use x="317.0731707317" y="341.4634146341" xlink:href="#block"/><use x="378.0487804878" y="341.4634146341" xlink:href="#block"/><use x="390.2439024390" y="341.4634146341" xlink:href="#block"/><use x="402.4390243902" y="341.4634146341" xlink:href="#block"/><use x="414.6341463415" y="341.4634146341" xlink:href="#block"/><use x="426.8292682927" y="341.4634146341" xlink:href="#block"/><use x="451.2195121951" y="341.4634146341" xlink:href="#block"/><use x="463.4146341463" y="341.4634146341" xlink:href="#block"/><use x="0.0000000000" y="353.6585365854" xlink:href="#block"/><use x="24.3902439024" y="353.6585365854" xlink:href="#block"/><use x="48.7804878049" y="353.6585365854" xlink:href="#block"/><use x="97.5609756098" y="353.6585365854" xlink:href="#block"/><use x="121.9512195122" y="353.6585365854" xlink:href="#block"/><use x="134.1463414634" y="353.6585365854" xlink:href="#block"/><use x="170.7317073171" y="353.6585365854" xlink:href="#block"/><use x="182.9268292683" y="353.6585365854" xlink:href="#block"/><use x="195.1219512195" y="353.6585365854" xlink:href="#block"/><use x="207.3170731707" y="353.6585365854" xlink:href="#block"/><use x="219.5121951220" y="353.6585365854" xlink:href="#block"/><use x="243.9024390244" y="353.6585365854" xlink:href="#block"/><use x="256.0975609756" y="353.6585365854" xlink:href="#block"/><use x="280.4878048780" y="353.6585365854" xlink:href="#block"/><use x="341.4634146341" y="353.6585365854" xlink:href="#block"/><use x="365.8536585366" y="353.6585365854" xlink:href="#block"/><use x="378.0487804878" y="353.6585365854" xlink:href="#block"/><use x="414.6341463415" y="353.6585365854" xlink:href="#block"/><use x="426.8292682927" y="353.6585365854" xlink:href="#block"/><use x="463.4146341463" y="353.6585365854" xlink:href="#block"/><use x="487.8048780488" y="353.6585365854" xlink:href="#block"/><use x="24.3902439024" y="365.8536585366" xlink:href="#block"/><use x="36.5853658537" y="365.8536585366" xlink:href="#block"/><use x="73.1707317073" y="365.8536585366" xlink:href="#block"/><use x="109.7560975610" y="365.8536585366" xlink:href="#block"/><use x="121.9512195122" y="365.8536585366" xlink:href="#block"/><use x="134.1463414634" y="365.8536585366" xlink:href="#block"/><use x="146.3414634146" y="365.8536585366" xlink:href="#block"/><use x="170.7317073171" y="365.8536585366" xlink:href="#block"/><use x="182.9268292683" y="365.8536585366" xlink:href="#block"/><use x="256.0975609756" y="365.8536585366" xlink:href="#block"/><use x="268.2926829268" y="365.8536585366" xlink:href="#block"/><use x="292.6829268293" y="365.8536585366" xlink:href="#block"/><use x="341.4634146341" y="365.8536585366" xlink:href="#block"/><use x="365.8536585366" y="365.8536585366" xlink:href="#block"/><use x="414.6341463415" y="365.8536585366" xlink:href="#block"/><use x="426.8292682927" y="365.8536585366" xlink:href="#block"/><use x="439.0243902439" y="365.8536585366" xlink:href="#block"/><use x="463.4146341463" y="365.8536585366" xlink:href="#block"/><use x="24.3902439024" y="378.0487804878" xlink:href="#block"/><use x="36.5853658537" y="378.0487804878" xlink:href="#block"/><use x="48.7804878049" y="378.0487804878" xlink:href="#block"/><use x="85.3658536585" y="378.0487804878" xlink:href="#block"/><use x="109.7560975610" y="378.0487804878" xlink:href="#block"/><use x="121.9512195122" y="378.0487804878" xlink:href="#block"/><use x="134.1463414634" y="378.0487804878" xlink:href="#block"/><use x="146.3414634146" y="378.0487804878" xlink:href="#block"/><use x="231.7073170732" y="378.0487804878" xlink:href="#block"/><use x="256.0975609756" y="378.0487804878" xlink:href="#block"/><use x="268.2926829268" y="378.0487804878" xlink:href="#block"/><use x="280.4878048780" y="378.0487804878" xlink:href="#block"/><use x="317.0731707317" y="378.0487804878" xlink:href="#block"/><use x="378.0487804878" y="378.0487804878" xlink:href="#block"/><use x="390.2439024390" y="378.0487804878" xlink:href="#block"/><use x="475.6097560976" y="378.0487804878" xlink:href="#block"/><use x="0.0000000000" y="390.2439024390" xlink:href="#block"/><use x="12.1951219512" y="390.2439024390" xlink:href="#block"/><use x="73.1707317073" y="390.2439024390" xlink:href="#block"/><use x="121.9512195122" y="390.2439024390" xlink:href="#block"/><use x="158.5365853659" y="390.2439024390" xlink:href="#block"/><use x="170.7317073171" y="390.2439024390" xlink:href="#block"/><use x="182.9268292683" y="390.2439024390" xlink:href="#block"/><use x="207.3170731707" y="390.2439024390" xlink:href="#block"/><use x="231.7073170732" y="390.2439024390" xlink:href="#block"/><use x="243.9024390244" y="390.2439024390" xlink:href="#block"/><use x="292.6829268293" y="390.2439024390" xlink:href="#block"/><use x="304.8780487805" y="390.2439024390" xlink:href="#block"/><use x="317.0731707317" y="390.2439024390" xlink:href="#block"/><use x="329.2682926829" y="390.2439024390" xlink:href="#block"/><use x="341.4634146341" y="390.2439024390" xlink:href="#block"/><use x="378.0487804878" y="390.2439024390" xlink:href="#block"/><use x="390.2439024390" y="390.2439024390" xlink:href="#block"/><use x="402.4390243902" y="390.2439024390" xlink:href="#block"/><use x="414.6341463415" y="390.2439024390" xlink:href="#block"/><use x="426.8292682927" y="390.2439024390" xlink:href="#block"/><use x="439.0243902439" y="390.2439024390" xlink:href="#block"/><use x="451.2195121951" y="390.2439024390" xlink:href="#block"/><use x="97.5609756098" y="402.4390243902" xlink:href="#block"/><use x="134.1463414634" y="402.4390243902" xlink:href="#block"/><use x="170.7317073171" y="402.4390243902" xlink:href="#block"/><use x="207.3170731707" y="402.4390243902" xlink:href="#block"/><use x="219.5121951220" y="402.4390243902" xlink:href="#block"/><use x="231.7073170732" y="402.4390243902" xlink:href="#block"/><use x="268.2926829268" y="402.4390243902" xlink:href="#block"/><use x="280.4878048780" y="402.4390243902" xlink:href="#block"/><use x="292.6829268293" y="402.4390243902" xlink:href="#block"/><use x="317.0731707317" y="402.4390243902" xlink:href="#block"/><use x="341.4634146341" y="402.4390243902" xlink:href="#block"/><use x="390.2439024390" y="402.4390243902" xlink:href="#block"/><use x="439.0243902439" y="402.4390243902" xlink:href="#block"/><use x="451.2195121951" y="402.4390243902" xlink:href="#block"/><use x="463.4146341463" y="402.4390243902" xlink:href="#block"/><use x="0.0000000000" y="414.6341463415" xlink:href="#block"/><use x="12.1951219512" y="414.6341463415" xlink:href="#block"/><use x="24.3902439024" y="414.6341463415" xlink:href="#block"/><use x="36.5853658537" y="414.6341463415" xlink:href="#block"/><use x="48.7804878049" y="414.6341463415" xlink:href="#block"/><use x="60.9756097561" y="414.6341463415" xlink:href="#block"/><use x="73.1707317073" y="414.6341463415" xlink:href="#block"/><use x="97.5609756098" y="414.6341463415" xlink:href="#block"/><use x="109.7560975610" y="414.6341463415" xlink:href="#block"/><use x="121.9512195122" y="414.6341463415" xlink:href="#block"/><use x="134.1463414634" y="414.6341463415" xlink:href="#block"/><use x="146.3414634146" y="414.6341463415" xlink:href="#block"/><use x="158.5365853659" y="414.6341463415" xlink:href="#block"/><use x="170.7317073171" y="414.6341463415" xlink:href="#block"/><use x="182.9268292683" y="414.6341463415" xlink:href="#block"/><use x="195.1219512195" y="414.6341463415" xlink:href="#block"/><use x="207.3170731707" y="414.6341463415" xlink:href="#block"/><use x="304.8780487805" y="414.6341463415" xlink:href="#block"/><use x="317.0731707317" y="414.6341463415" xlink:href="#block"/><use x="329.2682926829" y="414.6341463415" xlink:href="#block"/><use x="341.4634146341" y="414.6341463415" xlink:href="#block"/><use x="353.6585365854" y="414.6341463415" xlink:href="#block"/><use x="390.2439024390" y="414.6341463415" xlink:href="#block"/><use x="414.6341463415" y="414.6341463415" xlink:href="#block"/><use x="439.0243902439" y="414.6341463415" xlink:href="#block"/><use x="463.4146341463" y="414.6341463415" xlink:href="#block"/><use x="0.0000000000" y="426.8292682927" xlink:href="#block"/><use x="73.1707317073" y="426.8292682927" xlink:href="#block"/><use x="97.5609756098" y="426.8292682927" xlink:href="#block"/><use x="134.1463414634" y="426.8292682927" xlink:href="#block"/><use x="182.9268292683" y="426.8292682927" xlink:href="#block"/><use x="195.1219512195" y="426.8292682927" xlink:href="#block"/><use x="207.3170731707" y="426.8292682927" xlink:href="#block"/><use x="243.9024390244" y="426.8292682927" xlink:href="#block"/><use x="256.0975609756" y="426.8292682927" xlink:href="#block"/><use x="268.2926829268" y="426.8292682927" xlink:href="#block"/><use x="304.8780487805" y="426.8292682927" xlink:href="#block"/><use x="353.6585365854" y="426.8292682927" xlink:href="#block"/><use x="378.0487804878" y="426.8292682927" xlink:href="#block"/><use x="390.2439024390" y="426.8292682927" xlink:href="#block"/><use x="439.0243902439" y="426.8292682927" xlink:href="#block"/><use x="451.2195121951" y="426.8292682927" xlink:href="#block"/><use x="463.4146341463" y="426.8292682927" xlink:href="#block"/><use x="475.6097560976" y="426.8292682927" xlink:href="#block"/><use x="0.0000000000" y="439.0243902439" xlink:href="#block"/><use x="24.3902439024" y="439.0243902439" xlink:href="#block"/><use x="36.5853658537" y="439.0243902439" xlink:href="#block"/><use x="48.7804878049" y="439.0243902439" xlink:href="#block"/><use x="73.1707317073" y="439.0243902439" xlink:href="#block"/><use x="97.5609756098" y="439.0243902439" xlink:href="#block"/><use x="109.7560975610" y="439.0243902439" xlink:href="#block"/><use x="134.1463414634" y="439.0243902439" xlink:href="#block"/><use x="195.1219512195" y="439.0243902439" xlink:href="#block"/><use x="256.0975609756" y="439.0243902439" xlink:href="#block"/><use x="268.2926829268" y="439.0243902439" xlink:href="#block"/><use x="280.4878048780" y="439.0243902439" xlink:href="#block"/><use x="304.8780487805" y="439.0243902439" xlink:href="#block"/><use x="317.0731707317" y="439.0243902439" xlink:href="#block"/><use x="365.8536585366" y="439.0243902439" xlink:href="#block"/><use x="378.0487804878" y="439.0243902439" xlink:href="#block"/><use x="390.2439024390" y="439.0243902439" xlink:href="#block"/><use x="402.4390243902" y="439.0243902439" xlink:href="#block"/><use x="414.6341463415" y="439.0243902439" xlink:href="#block"/><use x="426.8292682927" y="439.0243902439" xlink:href="#block"/><use x="439.0243902439" y="439.0243902439" xlink:href="#block"/><use x="475.6097560976" y="439.0243902439" xlink:href="#block"/><use x="0.0000000000" y="451.2195121951" xlink:href="#block"/><use x="24.3902439024" y="451.2195121951" xlink:href="#block"/><use x="36.5853658537" y="451.2195121951" xlink:href="#block"/><use x="48.7804878049" y="451.2195121951" xlink:href="#block"/><use x="73.1707317073" y="451.2195121951" xlink:href="#block"/><use x="109.7560975610" y="451.2195121951" xlink:href="#block"/><use x="134.1463414634" y="451.2195121951" xlink:href="#block"/><use x="158.5365853659" y="451.2195121951" xlink:href="#block"/><use x="195.1219512195" y="451.2195121951" xlink:href="#block"/><use x="207.3170731707" y="451.2195121951" xlink:href="#block"/><use x="219.5121951220" y="451.2195121951" xlink:href="#block"/><use x="231.7073170732" y="451.2195121951" xlink:href="#block"/><use x="268.2926829268" y="451.2195121951" xlink:href="#block"/><use x="280.4878048780" y="451.2195121951" xlink:href="#block"/><use x="304.8780487805" y="451.2195121951" xlink:href="#block"/><use x="365.8536585366" y="451.2195121951" xlink:href="#block"/><use x="378.0487804878" y="451.2195121951" xlink:href="#block"/><use x="439.0243902439" y="451.2195121951" xlink:href="#block"/><use x="451.2195121951" y="451.2195121951" xlink:href="#block"/><use x="463.4146341463" y="451.2195121951" xlink:href="#block"/><use x="475.6097560976" y="451.2195121951" xlink:href="#block"/><use x="0.0000000000" y="463.4146341463" xlink:href="#block"/><use x="24.3902439024" y="463.4146341463" xlink:href="#block"/><use x="36.5853658537" y="463.4146341463" xlink:href="#block"/><use x="48.7804878049" y="463.4146341463" xlink:href="#block"/><use x="73.1707317073" y="463.4146341463" xlink:href="#block"/><use x="109.7560975610" y="463.4146341463" xlink:href="#block"/><use x="146.3414634146" y="463.4146341463" xlink:href="#block"/><use x="182.9268292683" y="463.4146341463" xlink:href="#block"/><use x="195.1219512195" y="463.4146341463" xlink:href="#block"/><use x="219.5121951220" y="463.4146341463" xlink:href="#block"/><use x="231.7073170732" y="463.4146341463" xlink:href="#block"/><use x="243.9024390244" y="463.4146341463" xlink:href="#block"/><use x="292.6829268293" y="463.4146341463" xlink:href="#block"/><use x="304.8780487805" y="463.4146341463" xlink:href="#block"/><use x="317.0731707317" y="463.4146341463" xlink:href="#block"/><use x="341.4634146341" y="463.4146341463" xlink:href="#block"/><use x="365.8536585366" y="463.4146341463" xlink:href="#block"/><use x="378.0487804878" y="463.4146341463" xlink:href="#block"/><use x="463.4146341463" y="463.4146341463" xlink:href="#block"/><use x="475.6097560976" y="463.4146341463" xlink:href="#block"/><use x="487.8048780488" y="463.4146341463" xlink:href="#block"/><use x="0.0000000000" y="475.6097560976" xlink:href="#block"/><use x="73.1707317073" y="475.6097560976" xlink:href="#block"/><use x="121.9512195122" y="475.6097560976" xlink:href="#block"/><use x="158.5365853659" y="475.6097560976" xlink:href="#block"/><use x="182.9268292683" y="475.6097560976" xlink:href="#block"/><use x="195.1219512195" y="475.6097560976" xlink:href="#block"/><use x="231.7073170732" y="475.6097560976" xlink:href="#block"/><use x="243.9024390244" y="475.6097560976" xlink:href="#block"/><use x="256.0975609756" y="475.6097560976" xlink:href="#block"/><use x="280.4878048780" y="475.6097560976" xlink:href="#block"/><use x="304.8780487805" y="475.6097560976" xlink:href="#block"/><use x="353.6585365854" y="475.6097560976" xlink:href="#block"/><use x="390.2439024390" y="475.6097560976" xlink:href="#block"/><use x="414.6341463415" y="475.6097560976" xlink:href="#block"/><use x="439.0243902439" y="475.6097560976" xlink:href="#block"/><use x="451.2195121951" y="475.6097560976" xlink:href="#block"/><use x="463.4146341463" y="475.6097560976" xlink:href="#block"/><use x="0.0000000000" y="487.8048780488" xlink:href="#block"/><use x="12.1951219512" y="487.8048780488" xlink:href="#block"/><use x="24.3902439024" y="487.8048780488" xlink:href="#block"/><use x="36.5853658537" y="487.8048780488" xlink:href="#block"/><use x="48.7804878049" y="487.8048780488" xlink:href="#block"/><use x="60.9756097561" y="487.8048780488" xlink:href="#block"/><use x="73.1707317073" y="487.8048780488" xlink:href="#block"/><use x="109.7560975610" y="487.8048780488" xlink:href="#block"/><use x="121.9512195122" y="487.8048780488" xlink:href="#block"/><use x="134.1463414634" y="487.8048780488" xlink:href="#block"/><use x="219.5121951220" y="487.8048780488" xlink:href="#block"/><use x="231.7073170732" y="487.8048780488" xlink:href="#block"/><use x="243.9024390244" y="487.8048780488" xlink:href="#block"/><use x="292.6829268293" y="487.8048780488" xlink:href="#block"/><use x="304.8780487805" y="487.8048780488" xlink:href="#block"/><use x="341.4634146341" y="487.8048780488" xlink:href="#block"/><use x="365.8536585366" y="487.8048780488" xlink:href="#block"/><use x="390.2439024390" y="487.8048780488" xlink:href="#block"/><use x="402.4390243902" y="487.8048780488" xlink:href="#block"/><use x="414.6341463415" y="487.8048780488" xlink:href="#block"/><use x="426.8292682927" y="487.8048780488" xlink:href="#block"/><use x="439.0243902439" y="487.8048780488" xlink:href="#block"/><use x="475.6097560976" y="487.8048780488" xlink:href="#block"/></svg>
